<svg width="41" height="37" viewBox="0 0 41 37" fill="none" xmlns="http://www.w3.org/2000/svg">
<path d="M38.875 36.1094C38.6423 36.1094 38.4127 36.0564 38.2036 35.9544C37.9945 35.8524 37.8114 35.7042 37.6682 35.5208C35.4804 32.7196 33.4505 30.5576 30.6512 29.1087C28.0605 27.7717 24.8066 27.0741 20.5 26.9439V34.5781C20.4991 34.877 20.4107 35.1691 20.2458 35.4184C20.0809 35.6676 19.8466 35.8632 19.5719 35.9809C19.2971 36.0987 18.994 36.1334 18.6997 36.0809C18.4055 36.0284 18.1331 35.8909 17.916 35.6854L1.07225 19.6073C0.92257 19.4643 0.80343 19.2925 0.72203 19.1022C0.640631 18.9118 0.598663 18.707 0.598663 18.5C0.598663 18.293 0.640631 18.0882 0.72203 17.8978C0.80343 17.7075 0.92257 17.5357 1.07225 17.3927L17.916 1.31458C18.1331 1.1091 18.4055 0.971621 18.6997 0.919111C18.994 0.866601 19.2971 0.901352 19.5719 1.01908C19.8466 1.1368 20.0809 1.33236 20.2458 1.58163C20.4107 1.83089 20.4991 2.12298 20.5 2.42187V10.1126C27.5954 10.4389 32.8821 13.0708 36.2288 17.9478C39.0013 21.9874 40.4062 27.5822 40.4062 34.5781C40.4062 34.9842 40.2449 35.3737 39.9577 35.6609C39.6706 35.9481 39.2811 36.1094 38.875 36.1094Z" fill="black"/>
</svg>
