<svg width="172" height="218" viewBox="0 0 172 218" fill="none" xmlns="http://www.w3.org/2000/svg">
<path fill-rule="evenodd" clip-rule="evenodd" d="M120.611 20.4375C120.608 20.4376 120.605 20.4378 120.602 20.438C120.555 20.4418 120.511 20.4607 120.475 20.492L21.4895 116.78C21.0033 117.254 20.6698 117.862 20.532 118.527C20.3942 119.192 20.4582 119.883 20.716 120.512C20.9737 121.14 21.4134 121.677 21.9785 122.053C22.5436 122.43 23.2084 122.629 23.8875 122.625H68.6865C70.3631 122.625 72.0138 123.038 73.4931 123.827C74.9724 124.616 76.2349 125.757 77.1693 127.149C78.1036 128.541 78.6811 130.142 78.8507 131.809C79.0204 133.477 78.7771 135.161 78.1423 136.713L54.8026 193.775L149.932 101.22C150.418 100.747 150.751 100.14 150.889 99.4758C151.027 98.8122 150.964 98.1223 150.708 97.4946C150.452 96.8669 150.015 96.3299 149.452 95.9523C148.889 95.5747 148.226 95.3737 147.548 95.375H102.749C101.04 95.3751 99.3574 94.9464 97.8565 94.1281C96.3556 93.3098 95.084 92.1281 94.1581 90.6911C93.2322 89.2541 92.6816 87.6078 92.5567 85.9029C92.4318 84.198 92.7366 82.4891 93.4431 80.9325L120.802 20.7372L120.843 20.6555C120.835 20.6107 120.817 20.5685 120.789 20.5328C120.767 20.5001 120.74 20.4722 120.707 20.4511L120.602 20.438L120.611 20.4375ZM106.21 5.85871C109.661 2.50853 114.173 0.467817 118.968 0.0885663C123.763 -0.290685 128.54 1.01531 132.475 3.78127C136.41 6.54724 139.256 10.5998 140.523 15.2398C141.79 19.8799 141.398 24.8166 139.414 29.1983L118.622 74.9375H147.548C168.939 74.9375 179.512 100.948 164.171 115.867L64.163 213.177C60.9856 216.268 56.7284 217.998 52.2956 218H48.1809C45.3868 218 42.6357 217.312 40.17 215.998C37.7044 214.684 35.6 212.783 34.0424 210.463C32.4848 208.144 31.5217 205.476 31.2382 202.697C30.9547 199.917 31.3595 197.11 32.4168 194.524L53.4674 143.062H23.8875C2.49625 143.062 -8.07675 117.052 7.26501 102.133L106.196 5.84509L106.21 5.85871Z" fill="#FFEF61"/>
</svg>
